<svg width="35" height="40" viewBox="0 0 35 40" fill="none" xmlns="http://www.w3.org/2000/svg">
  <path d="M0 36.25C0 38.3203 1.67969 40 3.75 40H31.25C33.3203 40 35 38.3203 35 36.25V15H0V36.25ZM25 20.9375C25 20.4219 25.4219 20 25.9375 20H29.0625C29.5781 20 30 20.4219 30 20.9375V24.0625C30 24.5781 29.5781 25 29.0625 25H25.9375C25.4219 25 25 24.5781 25 24.0625V20.9375ZM25 30.9375C25 30.4219 25.4219 30 25.9375 30H29.0625C29.5781 30 30 30.4219 30 30.9375V34.0625C30 34.5781 29.5781 35 29.0625 35H25.9375C25.4219 35 25 34.5781 25 34.0625V30.9375ZM15 20.9375C15 20.4219 15.4219 20 15.9375 20H19.0625C19.5781 20 20 20.4219 20 20.9375V24.0625C20 24.5781 19.5781 25 19.0625 25H15.9375C15.4219 25 15 24.5781 15 24.0625V20.9375ZM15 30.9375C15 30.4219 15.4219 30 15.9375 30H19.0625C19.5781 30 20 30.4219 20 30.9375V34.0625C20 34.5781 19.5781 35 19.0625 35H15.9375C15.4219 35 15 34.5781 15 34.0625V30.9375ZM5 20.9375C5 20.4219 5.42188 20 5.9375 20H9.0625C9.57812 20 10 20.4219 10 20.9375V24.0625C10 24.5781 9.57812 25 9.0625 25H5.9375C5.42188 25 5 24.5781 5 24.0625V20.9375ZM5 30.9375C5 30.4219 5.42188 30 5.9375 30H9.0625C9.57812 30 10 30.4219 10 30.9375V34.0625C10 34.5781 9.57812 35 9.0625 35H5.9375C5.42188 35 5 34.5781 5 34.0625V30.9375ZM31.25 5H27.5V1.25C27.5 0.5625 26.9375 0 26.25 0H23.75C23.0625 0 22.5 0.5625 22.5 1.25V5H12.5V1.25C12.5 0.5625 11.9375 0 11.25 0H8.75C8.0625 0 7.5 0.5625 7.5 1.25V5H3.75C1.67969 5 0 6.67969 0 8.75V12.5H35V8.75C35 6.67969 33.3203 5 31.25 5Z" fill="#0B0C0C"/>
</svg>
