<?xml version="1.0" encoding="utf-8"?>
<!-- Generator: Adobe Illustrator 25.1.0, SVG Export Plug-In . SVG Version: 6.00 Build 0)  -->
<svg version="1.1" id="Layer_1" xmlns="http://www.w3.org/2000/svg" xmlns:xlink="http://www.w3.org/1999/xlink" x="0px" y="0px"
	 viewBox="0 0 512 384" style="enable-background:new 0 0 512 384;" xml:space="preserve">
<style type="text/css">
	.st0{fill:#FFFFFF;}
</style>
<path class="st0" d="M496,320H64V16c0-8.8-7.2-16-16-16H16C7.2,0,0,7.2,0,16v336c0,17.7,14.3,32,32,32h464c8.8,0,16-7.2,16-16v-32
	C512,327.2,504.8,320,496,320z"/>
<path class="st0" d="M480,253V135c0-21.4-25.9-32.1-41-17l-32.4,32.4l-96-96c-12.5-12.5-32.8-12.5-45.3,0L192,127.7l-46.1-46.1
	c0,0,0,0,0,0c-6.2-6.2-16.4-6.2-22.6,0l-22.6,22.6c0,0,0,0,0,0c-6.2,6.2-6.2,16.4,0,22.6l68.7,68.7c12.5,12.5,32.8,12.5,45.3,0
	l73.4-73.4l73.3,73.4L328.9,228c-15.1,15.1-4.4,41,17,41H464C472.8,269,480,261.8,480,253z"/>
</svg>
