<svg width="40" height="40" viewBox="0 0 40 40" fill="none" xmlns="http://www.w3.org/2000/svg">
<path d="M1.5 20C1.5 9.78004 9.78004 1.5 20 1.5C30.22 1.5 38.5 9.78004 38.5 20C38.5 30.22 30.22 38.5 20 38.5C9.78004 38.5 1.5 30.22 1.5 20Z" stroke="#0B0C0C" stroke-width="3"/>
<path d="M22.4033 19.8148V20.0693L22.6091 20.2191L27.7301 23.9449L27.7315 23.9459C27.9362 24.0938 27.9862 24.3838 27.829 24.6021C27.8288 24.6023 27.8287 24.6025 27.8286 24.6027L25.557 27.7281C25.5567 27.7284 25.5565 27.7288 25.5563 27.7291C25.4044 27.9343 25.1109 27.9825 24.898 27.829C24.8978 27.8289 24.8977 27.8289 24.8976 27.8288L17.7899 22.6632C17.7893 22.6628 17.7888 22.6624 17.7883 22.662C17.6661 22.5706 17.5968 22.4297 17.5968 22.2825V8.70993C17.5968 8.45381 17.8084 8.24219 18.0645 8.24219H21.9355C22.1916 8.24219 22.4033 8.45381 22.4033 8.70993V19.8148Z" fill="#0B0C0C" stroke="#0B0C0C"/>
</svg>
