<svg height="60" viewBox="0 0 130 60" width="130" xmlns="http://www.w3.org/2000/svg"><g transform="translate(-70.241483 -417.76239)"><path d="m70.241486 417.76239h130v60h-130z" fill="#fff"/><path d="m145.07881 448.46774s.0165-.38466-1.87326-.60491c-9.85948-1.14704-41.98418-3.71805-47.271699 1.66098 0 0-11.71092 12.28897 47.703699 20.09057 0 0 44.48895 4.49667 47.43317-4.13596 0 0 4.5552-5.67138-11.12463-9.31681-9.39661-2.18555-30.69355-4.96379-58.55381-3.63266 0 0 28.22629 2.58989 34.18496 6.83439 0 0 8.9444 4.68394-6.54283 5.03614 0 0-32.51441.75228-46.61093-7.62391 0 0-25.221149-11.67794 42.65533-8.30783z" fill="#fd4"/><g fill="#048"><path d="m154.63131 448.61458c-3.9588 0-6.55614-2.43241-6.55614-6.35024v-11.00946h-1.97914l6.92749-6.51516v4.28865h5.48411v2.22651h-5.5256v11.00946c0 4.08275 2.63884 4.37111 3.79333 4.37111 1.48435 0 1.8557-.65971 2.43348-1.07203-.083 1.07203-1.73227 3.05116-4.57753 3.05116z"/><path d="m140.52681 435.72602h-8.08252c.28836-2.80377 1.69024-5.19548 4.28811-5.19548 2.02063 0 3.79441 1.73174 3.79441 5.19548m4.90633 1.93817c0-6.47394-4.16469-9.03059-8.41131-9.03059-6.18585 0-9.69083 5.07206-9.69083 10.10262 0 5.60806 3.99976 10.02014 9.60783 10.02014 5.03083 0 8.12296-3.50497 8.20595-6.80353-.86614 1.81421-3.58798 4.04073-6.39175 4.04073-4.32961 0-6.30874-3.95879-6.39121-7.4635 0-.28863 0-.65971 0-.86587z"/><path d="m119.05004 448.54994c.74271-.37082 1.11353-.70068 1.11353-1.73174v-10.47343c0-1.93817-.37082-4.49481-3.87607-4.49481-1.52558 0-3.01019.98983-3.6699 1.8557v13.11254c0 1.03106.41232 1.36092 1.07203 1.73174h-6.96873c.65998-.37082 1.07231-.70068 1.07231-1.73174v-15.25687c0-1.31941-.61849-1.60804-1.36093-1.8142l6.18532-.90737v2.76281c1.15449-1.11326 3.38128-2.76281 6.10258-2.76281 3.29909 0 6.14435 2.14433 6.14435 6.02039v11.95805c0 1.03106.45329 1.36092 1.113 1.73174z"/><path d="m93.066231 438.44786c.16493 5.07206-1.44285 8.16471-4.45331 8.32964-2.84526.0415-4.78316-3.09266-4.94836-7.91758-.12369-4.57675 1.36092-8.24665 4.45358-8.32912 3.21636-.12369 4.82467 3.66991 4.94809 7.91706m5.03083.20616c0-5.15425-3.17512-9.97892-9.60783-10.02015-6.26778 0-9.6903 4.98959-9.6903 10.18508-.0824 4.28864 2.51542 9.93768 9.60783 9.93768 5.81397 0 9.60783-4.70097 9.6903-10.10261z"/><path d="m99.982821 436.63126 2.280259.82464v-2.38879h1.30345v2.38879l2.28132-.82464.43414 1.19386-2.34623.73978 1.45562 1.99829-1.06405.73845-1.41199-2.04191-1.41199 2.04191-1.06512-.73845 1.45562-1.99829-2.346229-.73978z"/><path d="m160.48038 429.65695c0-1.26754.95605-2.22386 2.1813-2.22386 1.21142 0 2.16747.95632 2.16747 2.22386 0 1.2891-.95605 2.23823-2.16747 2.23823-1.22525 0-2.1813-.94913-2.1813-2.23823m2.1813 2.68433c1.45934 0 2.70588-1.13321 2.70588-2.68433 0-1.53675-1.24654-2.66996-2.70588-2.66996-1.47264 0-2.71917 1.13321-2.71917 2.66996 0 1.55112 1.24653 2.68433 2.71917 2.68433m-.56661-2.47178h.53841l.81453 1.33857h.52404l-.87836-1.35985c.45328-.0567.80069-.29741.80069-.84992 0-.60889-.36124-.8781-1.09065-.8781h-1.17577v3.08787h.46711zm0-.39663v-.95604h.6379c.3256 0 .67248.0708.67248.45328 0 .47457-.35379.50276-.75068.50276z"/><g transform="matrix(.51914463 0 0 .51914463 -23.699709 344.86415)"><path d="m357.3017 237.18617h-4.65875v-13.13237h4.65875zm.2825-18.17475c0 1.433-1.17875 2.61075-2.61125 2.61075-1.43375 0-2.61125-1.17775-2.61125-2.61075 0-1.43312 1.1775-2.61137 2.61125-2.61137 1.4325 0 2.61125 1.17825 2.61125 2.61137"/><path d="m365.0267 225.7433h.0512c1.075-1.58638 2.38-2.125 4.1975-2.125 3.53375 0 4.94 2.2275 4.94 5.45412v8.11375h-4.6575v-6.39987c0-1.25487.205-3.45462-2.1-3.45462-1.895 0-2.43125 1.40625-2.43125 3.04537v6.80912h-4.66v-13.13237h4.66v1.6895"/><path d="m391.9792 237.18617h-4.65875v-13.13237h4.65875zm.28125-18.17475c0 1.433-1.1775 2.61075-2.61125 2.61075s-2.61125-1.17775-2.61125-2.61075c0-1.43312 1.1775-2.61137 2.61125-2.61137s2.61125 1.17825 2.61125 2.61137"/><path d="m401.39795 237.18617h-4.65875v-9.29299h-2.77v-3.83938h2.77v-3.94138h4.65875v3.94138h2.6375v3.83938h-2.6375z"/><path d="m376.35795 228.0553 3.1075 1.1255v-3.25688h1.77875v3.25688l3.1075-1.1255.59375 1.62837-3.19875 1.00588 1.98375 2.72465-1.4525 1.00586-1.9225-2.78326-1.92375 2.78326-1.45125-1.00586 1.985-2.72465-3.2-1.00588z"/></g></g></g></svg>