<svg width="40" height="40" viewBox="0 0 40 40" fill="none" xmlns="http://www.w3.org/2000/svg">
  <path d="M32.0625 27H28.5082C27.9905 27 27.5707 27.4198 27.5707 27.9375V31.91H18V22H24.5625C25.0802 22 25.5 21.5802 25.5 21.0625V17.9375C25.5 17.4198 25.0802 17 24.5625 17H18V12.0347C18 9.51391 19.9189 7.57484 22.8275 7.57484C24.6758 7.57484 26.4117 8.47367 27.3316 9.04742C27.734 9.29844 28.2603 9.20766 28.5572 8.83766L30.7832 6.0632C31.1139 5.65102 31.0394 5.04719 30.6177 4.72875C29.3378 3.7625 26.4825 2 22.6821 2C16.2833 2 11.75 6.12047 11.75 11.8407V17H9.5625C9.04477 17 8.625 17.4198 8.625 17.9375V21.0625C8.625 21.5802 9.04477 22 9.5625 22H11.75V32H8.9375C8.41977 32 8 32.4198 8 32.9375V36.0625C8 36.5802 8.41977 37 8.9375 37H32.0625C32.5802 37 33 36.5802 33 36.0625V27.9375C33 27.4198 32.5802 27 32.0625 27Z" fill="#0B0C0C"/>
</svg>
