<?xml version="1.0" encoding="UTF-8" standalone="no"?>
<svg width="100px" height="120px" viewBox="0 0 100 120" version="1.1" xmlns="http://www.w3.org/2000/svg" xmlns:xlink="http://www.w3.org/1999/xlink">
    <!-- Generator: Sketch 39.1 (31720) - http://www.bohemiancoding.com/sketch -->
    <title>National Careers Service logo | National Careers Service</title>
    <desc>100px wide by 120px high</desc>
    <defs></defs>
    <g id="Page-1" stroke="none" stroke-width="1" fill="none" fill-rule="evenodd">
        <g id="120-RL">
            <polygon class="ncs-logo-flag" id="Fill-1" fill="#000000" transform="translate(50.000000, 60.000000) scale(-1, 1) translate(-50.000000, -60.000000) " points="0 0 0 72.2251764 100 120 100 0"></polygon>
            <g id="Group-30" class="ncs-logo-type" transform="translate(5.000000, 4.028571)" fill="#FFFFFF">
                <path d="M13.1040506,17.7311633 L6.37020723,9.23442857 C5.85406265,8.57320408 5.3870747,7.93646939 4.84696627,7.22626531 L4.79780964,7.22626531 C4.87154458,7.76565306 4.87154458,8.84259184 4.87154458,9.52830612 L4.87154458,17.7311633 L1.13625542,17.7311633 L1.13625542,1.59544898 L4.89673735,1.59544898 L11.408147,9.74871429 C11.9242916,10.4093265 12.3912795,11.0215714 12.8582675,11.7072857 L12.9074241,11.7072857 C12.8582675,10.8746327 12.8582675,9.69973469 12.8582675,9.063 L12.8582675,1.59544898 L16.5941711,1.59544898 L16.5941711,17.7311633 L13.1040506,17.7311633 L13.1040506,17.7311633 Z" id="Fill-2"></path>
                <path d="M25.0499711,12.5641837 L23.7970916,12.6131633 C22.5429831,12.6621429 21.9045614,13.0784694 21.9045614,13.8621429 C21.9045614,14.6696939 22.5190193,15.135 23.5513084,15.135 C24.2640795,15.135 24.7802241,14.9641837 25.0499711,14.7927551 L25.0499711,12.5641837 Z M25.910212,17.7309184 L25.3946819,16.7519388 C24.606947,17.4370408 23.6004651,17.9758163 22.1503446,17.9758163 C19.8645614,17.9758163 18.1938506,16.4819388 18.1938506,14.1560204 C18.1938506,11.6586735 20.2830072,10.4341837 23.2065976,10.3111224 L25.0739349,10.2382653 L25.0739349,10.1403061 C25.0739349,9.0627551 24.0908024,8.62255102 22.9620434,8.62255102 C21.9285253,8.62255102 20.8962361,8.89193878 20.061188,9.33214286 L18.9797422,7.15316327 C20.6264892,6.10010204 22.2234651,5.87969388 23.8210554,5.87969388 C27.1391277,5.87969388 28.8589952,7.20214286 28.8589952,10.2872449 L28.8589952,15.5764286 C28.8589952,16.1635714 28.8589952,17.0935714 29.0562361,17.7309184 L25.910212,17.7309184 Z" id="Fill-4"></path>
                <path d="M35.5689361,17.9757551 C32.9648639,17.9757551 32.1279723,16.6777959 32.1279723,14.9396327 L32.1279723,8.81779592 L29.9417313,8.81779592 L29.9417313,6.14902041 L32.1279723,6.14902041 L32.1279723,3.40677551 L35.8386831,2.35371429 L35.8386831,6.14902041 L39.5002373,6.14902041 L38.4685627,8.81779592 L35.8386831,8.81779592 L35.8386831,13.813102 C35.8386831,14.6953469 36.183394,15.0620816 36.9944783,15.0620816 C37.6089361,15.0620816 38.3462855,14.8416735 38.7886952,14.6702449 L39.5500084,17.143102 C38.3462855,17.7314694 36.8218157,17.9757551 35.5689361,17.9757551" id="Fill-6"></path>
                <path d="M40.5099759,17.7312245 L44.2206867,17.7312245 L44.2206867,6.14877551 L40.5099759,6.14877551 L40.5099759,17.7312245 Z M42.3773133,4.77857143 C41.1244337,4.77857143 40.1652651,3.84734694 40.1652651,2.64734694 C40.1652651,1.49693878 41.1244337,0.541836735 42.3773133,0.541836735 C43.6314217,0.541836735 44.588747,1.44795918 44.588747,2.64734694 C44.588747,3.79836735 43.6314217,4.77857143 42.3773133,4.77857143 L42.3773133,4.77857143 Z" id="Fill-8"></path>
                <path d="M51.7908687,8.74481633 C50.1441217,8.74481633 49.4553145,10.189102 49.4553145,11.9768571 C49.4553145,13.886449 50.3653265,15.2095102 51.8891819,15.2095102 C53.5359289,15.2095102 54.2235072,13.764 54.2235072,11.9768571 C54.2235072,10.0666531 53.3141096,8.74481633 51.7908687,8.74481633 M56.4103627,16.1633878 C55.304953,17.2899184 53.7565193,17.9756327 51.8639892,17.9756327 C50.0949651,17.9756327 48.645459,17.4613469 47.5879771,16.5313469 C46.3590614,15.4537959 45.6714831,13.8619592 45.6714831,12.0497143 C45.6714831,10.311551 46.3099048,8.76869388 47.4165434,7.64277551 C48.4979892,6.54073469 50.0206157,5.8795102 51.8639892,5.8795102 C53.8548325,5.8795102 55.4524229,6.54073469 56.5338687,7.69114286 C57.5403506,8.76869388 58.0564952,10.2380816 58.0564952,11.878898 C58.0564952,13.5435918 57.491194,15.0858367 56.4103627,16.1633878" id="Fill-10"></path>
                <path d="M67.2495217,17.7311633 L67.2495217,11.1195306 C67.2495217,10.1160612 67.0289313,8.98953061 65.7262807,8.98953061 C64.964353,8.98953061 64.1293048,9.20993878 63.2192928,9.79708163 L63.2192928,17.7311633 L59.5085819,17.7311633 L59.5085819,6.14871429 L62.6797988,6.14871429 L63.047859,7.32422449 C64.2276181,6.41810204 65.5536181,5.87993878 67.1020518,5.87993878 C68.9214614,5.87993878 70.9602325,6.85891837 70.9602325,10.0909592 L70.9602325,17.7311633 L67.2495217,17.7311633 Z" id="Fill-11"></path>
                <path d="M79.2446602,12.5641837 L77.9905518,12.6131633 C76.7376723,12.6621429 76.0992506,13.0784694 76.0992506,13.8621429 C76.0992506,14.6696939 76.7124795,15.135 77.7447687,15.135 C78.4575398,15.135 78.9736843,14.9641837 79.2446602,14.7927551 L79.2446602,12.5641837 Z M80.1036723,17.7309184 L79.5881422,16.7519388 C78.8016361,17.4370408 77.7939253,17.9758163 76.3438048,17.9758163 C74.0592506,17.9758163 72.3885398,16.4819388 72.3885398,14.1560204 C72.3885398,11.6586735 74.4764675,10.4341837 77.4012867,10.3111224 L79.2686241,10.2382653 L79.2686241,10.1403061 C79.2686241,9.0627551 78.2854916,8.62255102 77.1555036,8.62255102 C76.1232145,8.62255102 75.0909253,8.89193878 74.2558771,9.33214286 L73.1744313,7.15316327 C74.8211783,6.10010204 76.4181542,5.87969388 78.0157446,5.87969388 C81.332588,5.87969388 83.0524554,7.20214286 83.0524554,10.2872449 L83.0524554,15.5764286 C83.0524554,16.1635714 83.0524554,17.0935714 83.2496964,17.7309184 L80.1036723,17.7309184 Z" id="Fill-12"></path>
                <path d="M88.1662807,17.9757551 C85.9050759,17.9757551 85.0952205,16.7267755 85.0952205,15.1349388 L85.0952205,0.394530612 L88.8059313,0.394530612 L88.8059313,13.5437143 C88.8059313,14.2294286 88.9030157,14.6463673 89.4683169,14.6463673 C89.7147145,14.6463673 90.0096542,14.6212653 90.4766422,14.4988163 L90.9436301,17.2661633 C89.8873771,17.8533061 88.9030157,17.9757551 88.1662807,17.9757551" id="Fill-13"></path>
                <path d="M8.92641325,36.3424898 C3.5197988,36.3424898 0.521859036,32.6941224 0.521859036,28.1892245 C0.521859036,23.5612653 4.06113614,19.790449 9.78665422,19.790449 C11.3590518,19.790449 12.9074855,20.0598367 14.0374735,20.623102 L13.964353,23.953102 C12.4896542,23.0959592 11.064112,22.875551 9.95870241,22.875551 C6.09990723,22.875551 4.62643735,25.4463673 4.62643735,28.0171837 C4.62643735,30.9069796 6.54293133,33.2335102 9.59002771,33.2335102 C11.1132687,33.2335102 12.3673771,32.8410612 13.6694133,32.1308571 L14.6519313,34.8743265 C12.661088,35.9512653 10.8429072,36.3424898 8.92641325,36.3424898" id="Fill-14"></path>
                <path d="M22.2728675,30.9315306 L21.018759,30.9805102 C19.7658795,31.0294898 19.1274578,31.4458163 19.1274578,32.2288776 C19.1274578,33.0370408 19.7406867,33.5023469 20.7729759,33.5023469 C21.485747,33.5023469 22.0018916,33.3315306 22.2728675,33.1594898 L22.2728675,30.9315306 Z M23.1318795,36.0976531 L22.6163494,35.1186735 C21.8298434,35.8043878 20.8221325,36.342551 19.372012,36.342551 C17.0874578,36.342551 15.416747,34.8486735 15.416747,32.5233673 C15.416747,30.0254082 17.5046747,28.8015306 20.429494,28.6784694 L22.2968313,28.6056122 L22.2968313,28.5076531 C22.2968313,27.430102 21.3136988,26.9892857 20.1837108,26.9892857 C19.1514217,26.9892857 18.1191325,27.2586735 17.2840843,27.6994898 L16.2026386,25.519898 C17.8493855,24.4668367 19.4463614,24.2470408 21.0439518,24.2470408 C24.3607952,24.2470408 26.0806627,25.5688776 26.0806627,28.6539796 L26.0806627,33.9431633 C26.0806627,34.5309184 26.0806627,35.4609184 26.2779036,36.0976531 L23.1318795,36.0976531 Z" id="Fill-15"></path>
                <path d="M35.3721253,27.8463673 C34.7085108,27.4300408 34.094053,27.3559592 33.7984988,27.3559592 C33.1109205,27.3559592 32.5947759,27.528 31.7849205,28.1396327 L31.7849205,36.0982041 L28.0742096,36.0982041 L28.0742096,24.5163673 L31.2196193,24.5163673 L31.6122578,25.6912653 C32.5204265,24.883102 33.4544024,24.2469796 34.7576675,24.2469796 C35.3469325,24.2469796 36.0836675,24.4177959 36.6741614,24.8341224 L35.3721253,27.8463673 Z" id="Fill-16"></path>
                <path d="M42.1059687,26.9160612 C40.877053,26.9160612 40.1894747,28.0425918 40.1894747,28.9236122 L44.0716193,28.9236122 C43.9984988,27.9446327 43.4571614,26.9160612 42.1059687,26.9160612 L42.1059687,26.9160612 Z M40.3117518,31.3719796 C40.3861012,32.7923878 41.9093422,33.4536122 43.2126072,33.4536122 C44.3671735,33.4536122 45.1782578,33.2821837 46.4071735,32.6699388 L47.2422217,34.9958571 C45.620053,36.0489184 43.9984988,36.3421837 42.6221133,36.3421837 C38.2969446,36.3421837 36.6022699,33.4046327 36.6022699,30.4419796 C36.6022699,27.1848367 38.5918843,24.2472857 42.2534386,24.2472857 C45.4977759,24.2472857 47.8314867,26.6221837 47.8314867,30.2209592 L47.8314867,31.3719796 L40.3117518,31.3719796 Z" id="Fill-17"></path>
                <path d="M54.3711,26.9160612 C53.1421843,26.9160612 52.454606,28.0425918 52.454606,28.9236122 L56.3367506,28.9236122 C56.2624012,27.9446327 55.7222928,26.9160612 54.3711,26.9160612 L54.3711,26.9160612 Z M52.5768831,31.3719796 C52.6500036,32.7923878 54.1744735,33.4536122 55.4765096,33.4536122 C56.6323048,33.4536122 57.4421602,33.2821837 58.6710759,32.6699388 L59.5061241,34.9958571 C57.8851843,36.0489184 56.2624012,36.3421837 54.8872446,36.3421837 C50.5620759,36.3421837 48.8661723,33.4046327 48.8661723,30.4419796 C48.8661723,27.1848367 50.8570157,24.2472857 54.5185699,24.2472857 C57.7629072,24.2472857 60.0966181,26.6221837 60.0966181,30.2209592 L60.0966181,31.3719796 L52.5768831,31.3719796 Z" id="Fill-18"></path>
                <path d="M68.8468663,27.8463673 C68.1832518,27.4300408 67.568794,27.3559592 67.2744687,27.3559592 C66.5856614,27.3559592 66.0695169,27.528 65.2596614,28.1396327 L65.2596614,36.0982041 L61.5489506,36.0982041 L61.5489506,24.5163673 L64.6943602,24.5163673 L65.0869988,25.6912653 C65.9963964,24.883102 66.9303723,24.2469796 68.2324084,24.2469796 C68.8229024,24.2469796 69.5596373,24.4177959 70.1489024,24.8341224 L68.8468663,27.8463673 Z" id="Fill-19"></path>
                <path d="M74.6482084,36.3424898 C72.5590518,36.3424898 70.8631482,35.8043265 69.7577386,35.1186122 L70.888341,32.4743265 C71.9697867,33.2335102 73.1495458,33.6247347 74.2303771,33.6247347 C75.2866301,33.6247347 75.901088,33.3063673 75.901088,32.7192245 C75.901088,31.1512653 70.4944735,31.813102 70.4944735,27.9192245 C70.4944735,25.6918776 72.3618108,24.2469796 75.2374735,24.2469796 C76.6378229,24.2469796 77.9158952,24.4673878 78.9733771,24.8341224 L78.9733771,27.8708571 C77.8667386,27.4300408 76.6630157,27.0633061 75.3849434,27.0633061 C74.4755458,27.0633061 74.0829072,27.3075918 74.0829072,27.7484082 C74.0829072,29.0708571 79.586606,28.5075918 79.586606,32.6212653 C79.586606,35.3390204 77.1539675,36.3424898 74.6482084,36.3424898" id="Fill-20"></path>
                <path d="M5.78094217,54.7098367 C3.37226747,54.7098367 1.6524,53.9267755 0.423484337,53.118 L1.84964096,50.4492245 C2.93047229,51.1845306 4.15938795,51.7471837 5.58431566,51.7471837 C6.69033976,51.7471837 7.91864096,51.3553469 7.91864096,50.2539184 C7.91864096,48.3192245 3.96276145,48.0014694 2.0210747,45.7484082 C1.40661687,45.0382041 1.01397831,44.1326939 1.01397831,42.8837143 C1.01397831,40.4108571 3.00359277,38.1577959 6.71491807,38.1577959 C8.4354,38.1577959 9.93467711,38.5992245 10.941159,39.1618776 L10.8680386,42.2965714 C9.3693759,41.5367755 8.26273735,41.0959592 6.93550843,41.0959592 C5.80613494,41.0959592 4.9950506,41.6102449 4.9950506,42.3939184 C4.9950506,44.9647347 11.9003277,44.6714694 11.9003277,49.7886122 C11.9003277,52.8492245 9.1727494,54.7098367 5.78094217,54.7098367" id="Fill-21"></path>
                <path d="M18.2417169,45.2834082 C17.0128012,45.2834082 16.3252229,46.4099388 16.3252229,47.2909592 L20.2073675,47.2909592 C20.134247,46.3119796 19.5929096,45.2834082 18.2417169,45.2834082 L18.2417169,45.2834082 Z M16.4475,49.7393265 C16.5218494,51.1597347 18.0450904,51.8209592 19.3483554,51.8209592 C20.5029217,51.8209592 21.314006,51.6495306 22.5429217,51.0372857 L23.3779699,53.3632041 C21.7558012,54.4156531 20.134247,54.7095306 18.7578614,54.7095306 C14.4326928,54.7095306 12.7380181,51.7719796 12.7380181,48.8093265 C12.7380181,45.5521837 14.7276325,42.6146327 18.3891867,42.6146327 C21.6335241,42.6146327 23.9672349,44.9895306 23.9672349,48.5883061 L23.9672349,49.7393265 L16.4475,49.7393265 Z" id="Fill-22"></path>
                <path d="M32.7174831,46.2137143 C32.0550976,45.7973878 31.4406398,45.7233061 31.1450855,45.7233061 C30.4575072,45.7233061 29.9413627,45.8953469 29.1302783,46.5069796 L29.1302783,54.4649388 L25.4195675,54.4649388 L25.4195675,42.8837143 L28.5649771,42.8837143 L28.9588446,44.0586122 C29.8670133,43.250449 30.8009892,42.6143265 32.1030253,42.6143265 C32.6935193,42.6143265 33.4302542,42.7851429 34.0195193,43.2014694 L32.7174831,46.2137143 Z" id="Fill-23"></path>
                <polygon id="Fill-24" points="41.8359145 54.5388367 39.2306133 54.5388367 34.2178663 42.8835306 37.9285771 42.8835306 40.5338783 49.8374082 40.5830349 49.8374082 43.0396373 42.8835306 46.7263843 42.8835306"></polygon>
                <path d="M47.9565904,54.4646939 L51.6673012,54.4646939 L51.6673012,42.8834694 L47.9565904,42.8834694 L47.9565904,54.4646939 Z M49.8239277,41.5126531 C48.5710482,41.5126531 47.6118795,40.5814286 47.6118795,39.3820408 C47.6118795,38.2310204 48.5710482,37.2765306 49.8239277,37.2765306 C51.0780361,37.2765306 52.0359759,38.1820408 52.0359759,39.3820408 C52.0359759,40.532449 51.0780361,41.5126531 49.8239277,41.5126531 L49.8239277,41.5126531 Z" id="Fill-25"></path>
                <path d="M59.0407337,54.7098367 C55.1094325,54.7098367 53.1179747,52.0171837 53.1179747,48.6865714 C53.1179747,44.9402449 56.1411072,42.6143265 59.3356735,42.6143265 C61.2527819,42.6143265 62.2844566,43.0796327 62.8737217,43.4714694 L62.8006012,46.3606531 C61.9403602,45.650449 61.0795048,45.3565714 59.9501313,45.3565714 C58.2548422,45.3565714 56.8047217,46.6545306 56.8047217,48.5157551 C56.8047217,50.1069796 57.6643482,51.7961633 59.9249386,51.7961633 C60.9080711,51.7961633 61.6939627,51.502898 62.5787819,51.0124898 L63.4390229,53.3635102 C62.4565048,54.0737143 60.7366373,54.7098367 59.0407337,54.7098367" id="Fill-26"></path>
                <path d="M69.5105422,45.2834082 C68.2816265,45.2834082 67.5940482,46.4099388 67.5940482,47.2909592 L71.4761928,47.2909592 C71.4030723,46.3119796 70.8617349,45.2834082 69.5105422,45.2834082 L69.5105422,45.2834082 Z M67.7163253,49.7393265 C67.7906747,51.1597347 69.3139157,51.8209592 70.6171807,51.8209592 C71.771747,51.8209592 72.5828313,51.6495306 73.811747,51.0372857 L74.6467952,53.3632041 C73.0246265,54.4156531 71.4030723,54.7095306 70.0266867,54.7095306 C65.7015181,54.7095306 64.0068434,51.7719796 64.0068434,48.8093265 C64.0068434,45.5521837 65.9964578,42.6146327 69.658012,42.6146327 C72.9023494,42.6146327 75.2360602,44.9895306 75.2360602,48.5883061 L75.2360602,49.7393265 L67.7163253,49.7393265 Z" id="Fill-27"></path>
                <polygon id="Fill-28" points="80.592412 54.7098367 80.592412 52.1610612 79.6793277 52.1610612 79.6793277 51.6418776 82.1260988 51.6418776 82.1260988 52.1610612 81.2142434 52.1610612 81.2142434 54.7098367"></polygon>
                <polygon id="Fill-29" points="82.518553 54.7098367 82.518553 51.6418776 83.4488422 51.6418776 84.0079988 53.7345306 84.5597819 51.6418776 85.4925289 51.6418776 85.4925289 54.7098367 84.9149386 54.7098367 84.9149386 52.2951429 84.3029386 54.7098367 83.7056855 54.7098367 83.0955289 52.2951429 83.0955289 54.7098367"></polygon>
            </g>
        </g>
    </g>
</svg>